<svg width="20" height="20" viewBox="0 0 20 20" fill="none" xmlns="http://www.w3.org/2000/svg">
<path d="M16.775 3.45009C16.5094 3.45946 16.2656 3.60009 16.125 3.82509L8.59999 15.3376L3.72499 11.1251C3.51561 10.9079 3.20155 10.8266 2.91249 10.9173C2.62499 11.0063 2.41092 11.2501 2.36092 11.547C2.31092 11.8454 2.43124 12.1454 2.67499 12.3251L8.24999 17.1501C8.42499 17.2985 8.65624 17.3641 8.8828 17.3313C9.11092 17.297 9.31249 17.1673 9.43749 16.9751L17.475 4.70009C17.6469 4.44852 17.6609 4.12352 17.5125 3.8579C17.364 3.59384 17.0781 3.43602 16.775 3.45009Z" fill="black"/>
</svg>
