<svg width="20" height="20" viewBox="0 0 20 20" fill="none" xmlns="http://www.w3.org/2000/svg">
<g clip-path="url(#clip0_20_274)">
<path d="M9.99999 0.799885C9.89398 0.798385 9.78873 0.81797 9.69035 0.857501C9.59198 0.897032 9.50244 0.955721 9.42695 1.03016C9.35145 1.10459 9.2915 1.19329 9.25058 1.2911C9.20967 1.3889 9.18859 1.49386 9.18859 1.59988C9.18859 1.7059 9.20967 1.81087 9.25058 1.90867C9.2915 2.00648 9.35145 2.09518 9.42695 2.16961C9.50244 2.24405 9.59198 2.30274 9.69035 2.34227C9.78873 2.3818 9.89398 2.40138 9.99999 2.39988C14.2068 2.39988 17.6 5.79304 17.6 9.99988C17.6 14.2067 14.2068 17.5999 9.99999 17.5999C5.79314 17.5999 2.39999 14.2067 2.39999 9.99988C2.39999 7.80957 3.32319 5.84313 4.79999 4.4577V5.99989C4.79849 6.10589 4.81807 6.21114 4.8576 6.30952C4.89714 6.40789 4.95582 6.49743 5.03026 6.57293C5.1047 6.64842 5.19339 6.70837 5.2912 6.74929C5.389 6.79021 5.49397 6.81128 5.59999 6.81128C5.70601 6.81128 5.81097 6.79021 5.90878 6.74929C6.00658 6.70837 6.09528 6.64842 6.16972 6.57293C6.24415 6.49743 6.30284 6.40789 6.34237 6.30952C6.3819 6.21114 6.40149 6.10589 6.39999 5.99989V1.59988H1.99999C1.89398 1.59839 1.78873 1.61797 1.69035 1.6575C1.59198 1.69703 1.50244 1.75572 1.42695 1.83016C1.35145 1.90459 1.2915 1.99329 1.25058 2.0911C1.20967 2.1889 1.18859 2.29386 1.18859 2.39988C1.18859 2.5059 1.20967 2.61087 1.25058 2.70867C1.2915 2.80648 1.35145 2.89518 1.42695 2.96961C1.50244 3.04405 1.59198 3.10274 1.69035 3.14227C1.78873 3.1818 1.89398 3.20138 1.99999 3.19988H3.81014C1.96267 4.88368 0.799988 7.30882 0.799988 9.99988C0.799988 15.0714 4.92844 19.1999 9.99999 19.1999C15.0715 19.1999 19.2 15.0714 19.2 9.99988C19.2 4.92833 15.0715 0.799885 9.99999 0.799885Z" fill="black"/>
</g>
<defs>
<clipPath id="clip0_20_274">
<rect width="20" height="20" fill="white"/>
</clipPath>
</defs>
</svg>
